<?xml version="1.0" standalone="no"?>
<!DOCTYPE svg PUBLIC "-//W3C//DTD SVG 1.1//EN" "http://www.w3.org/Graphics/SVG/1.1/DTD/svg11.dtd" >
<svg xmlns="http://www.w3.org/2000/svg" xmlns:xlink="http://www.w3.org/1999/xlink" version="1.1">
<metadata>
Created by FontForge 20201107 at Thu Sep 13 15:34:23 2001
 By 
Sunil Khadgi # 243616
</metadata>
<defs>
<font id="AakritiBold" horiz-adv-x="0" >
  <font-face 
    font-family="Aakriti"
    font-weight="700"
    font-stretch="normal"
    units-per-em="1000"
    panose-1="0 0 7 0 0 0 0 0 0 0"
    ascent="800"
    descent="-200"
    x-height="491"
    cap-height="507"
    bbox="-455 -204 769 800"
    underline-thickness="20"
    underline-position="-227"
    unicode-range="U+0020-F000"
  />
<missing-glyph horiz-adv-x="500" 
d="M63 0v800h375v-800h-375zM125 63h250v675h-250v-675z" />
    <glyph glyph-name=".notdef" horiz-adv-x="500" 
d="M63 0v800h375v-800h-375zM125 63h250v675h-250v-675z" />
    <glyph glyph-name=".null" 
 />
    <glyph glyph-name="glyph2" horiz-adv-x="250" 
 />
    <glyph glyph-name="space" unicode=" " horiz-adv-x="250" 
 />
    <glyph glyph-name="exclam" unicode="!" horiz-adv-x="386" 
d="M266 -10v309q0 114 -86 114q-33 0 -55 -21t-22 -54q0 -34 24 -56t58 -22q39 0 84 63v-134q-46 -21 -85 -21q-70 0 -118 49.5t-48 119.5q0 77 53 122q50 41 128 41q69 0 114 -61q40 -56 40 -127v-322h-87z" />
    <glyph glyph-name="quotedbl" unicode="&#x22;" 
d="M-58 -197q-33 130 -132 130q-43 0 -43 -23q0 -24 20 -24q22 0 30 54l30 -17v-77q-25 -31 -61 -31q-37 0 -66.5 29t-29.5 66q0 45 37 70q32 22 79 22q80 0 138 -56q53 -51 71 -143h-73z" />
    <glyph glyph-name="numbersign" unicode="#" horiz-adv-x="392" 
d="M239 3q17 -19 61 -66q-20 0 -60 1t-60 1l-165 190q27 22 64 55q25 -27 62 -67q34 -36 62 -36q34 0 59 25t25 59q0 35 -24 61t-59 26q-20 0 -58 -18v91q31 8 52 8q9 0 26 -2.5t26 -2.5q11 0 11 31q0 27 -16 46t-42 19q-25 0 -42 -16.5t-17 -41.5q0 -6 3 -24h-93q0 47 8 70
q10 28 42 55q47 39 101 39q60 0 102 -41.5t42 -100.5q0 -41 -23 -81q48 -52 48 -119q0 -61 -37.5 -104.5t-97.5 -56.5z" />
    <glyph glyph-name="dollar" unicode="$" horiz-adv-x="389" 
d="M195 -24q-76 0 -127.5 51.5t-51.5 127.5q0 84 62 137q-27 36 -27 81q0 77 75 127l61 -61q-55 -26 -55 -67q0 -25 21 -43q20 4 41 4t41 -4q21 18 21 43q0 40 -52 68l60 59q73 -50 73 -125q0 -46 -27 -82q62 -53 62 -137q0 -74 -51.5 -126.5t-125.5 -52.5zM194 249
q-40 0 -65.5 -25t-25.5 -65t25.5 -65t65.5 -25t65.5 25t25.5 65t-25.5 65t-65.5 25z" />
    <glyph glyph-name="percent" unicode="%" horiz-adv-x="383" 
d="M244 56l89 -63l-58 -68l-271 190l58 72l52 -43q22 -18 47 -18q53 0 77 42q-30 -14 -53 -14q-59 0 -98 44t-39 104l-1 195h92v-195q0 -26 15 -44.5t41 -18.5q32 0 49 29q14 24 14 58v168h89l1 -267q0 -57 -26 -102q-28 -48 -78 -69z" />
    <glyph glyph-name="ampersand" unicode="&#x26;" horiz-adv-x="537" 
d="M245 82q-69 47 -69 138q0 76 48.5 126.5t123.5 50.5q74 0 124 -49.5t50 -122.5q0 -100 -73.5 -168t-174.5 -68q-107 0 -183.5 75.5t-76.5 182.5q0 100 64.5 170.5t174.5 81.5v-87q-68 -8 -108 -56.5t-40 -109.5q0 -62 39.5 -108t100.5 -56zM358 313q-40 0 -67 -25
t-27 -65q0 -63 76 -90v-40q42 17 68.5 52t26.5 79q0 37 -20.5 63t-56.5 26z" />
    <glyph glyph-name="quotesingle" unicode="'" 
d="M-133 -204q-72 0 -128.5 47t-77.5 130h84q14 -43 47 -72q35 -32 78 -32q32 0 32 28q0 10 -7 19t-17 9q-26 0 -36 -59l-29 17v84q27 33 66 33q41 0 73 -31t32 -72q0 -47 -34.5 -74t-82.5 -27z" />
    <glyph glyph-name="parenleft" unicode="(" horiz-adv-x="431" 
d="M283 123l-96 68q72 5 103.5 37.5t31.5 76.5q0 43 -33 74.5t-76 31.5q-44 0 -77.5 -33t-33.5 -77q0 -54 47 -90q21 -16 184 -125q15 -10 43 -33q24 -25 28 -58l-89 -71q6 48 6 53q0 11 -6.5 17.5t-45.5 32.5q-45 30 -173 118q-78 55 -78 148q0 87 58.5 144.5t146.5 57.5
q73 0 127.5 -54t54.5 -127q0 -139 -122 -191z" />
    <glyph glyph-name="parenright" unicode=")" horiz-adv-x="502" 
d="M254 -9q-102 0 -171 69t-69 171q0 101 69.5 170t170.5 69q100 0 169 -69.5t69 -169.5t-69 -170t-169 -70zM253 378q-65 0 -106.5 -41t-41.5 -106t41.5 -105.5t106.5 -40.5t106.5 40.5t41.5 105.5t-41.5 106t-106.5 41z" />
    <glyph glyph-name="asterisk" unicode="*" horiz-adv-x="405" 
d="M207 396q-13 0 -38.5 -21.5t-36.5 -36.5q-31 -42 -31 -96q0 -65 48 -114.5t113 -49.5q53 0 103 73v-140q-55 -21 -103 -21q-103 0 -176 76.5t-73 179.5q0 84 53 150h-47v82h355v-82h-167z" />
    <glyph glyph-name="plus" unicode="+" 
d="M-51 514q-27 0 -44.5 17t-17.5 44q0 26 17 43.5t43 17.5q27 0 44.5 -17.5t17.5 -44.5q0 -26 -17 -43t-43 -17z" />
    <glyph glyph-name="comma" unicode="," horiz-adv-x="166" 
d="M-2 -126l-32 61q59 43 54 120l69 -21q-4 -100 -91 -160z" />
    <glyph glyph-name="hyphen" unicode="-" horiz-adv-x="255" 
d="M153 -83q-69 105 -94 164q-35 85 -35 185q0 96 36 181q24 60 91 161h77q-59 -111 -78 -165q-29 -82 -29 -180q0 -99 29 -181q19 -54 79 -165h-76z" />
    <glyph glyph-name="hyphen" unicode="&#x2010;" horiz-adv-x="255" 
d="M153 -83q-69 105 -94 164q-35 85 -35 185q0 96 36 181q24 60 91 161h77q-59 -111 -78 -165q-29 -82 -29 -180q0 -99 29 -181q19 -54 79 -165h-76z" />
    <glyph glyph-name="period" unicode="." horiz-adv-x="376" 
d="M215 -9v501h89v-501h-89z" />
    <glyph glyph-name="slash" unicode="/" horiz-adv-x="426" 
d="M341 425q22 -47 22 -90q0 -143 -129 -184l199 -161h-133l-292 236l62 61l53 -46q25 -17 51 -17q46 0 75 29.5t29 75.5q0 64 -52 96h-244v66h462v-66h-103z" />
    <glyph glyph-name="zero" unicode="0" horiz-adv-x="362" 
d="M305 425v-212q0 -67 -36 -113q-39 -51 -104 -51t-105 51q-37 46 -37 113v212h-43v66h400v-66h-75zM214 425h-101v-227q0 -25 13 -46q15 -24 39 -24t38 24q11 20 11 46v227z" />
    <glyph glyph-name="one" unicode="1" horiz-adv-x="511" 
d="M453 425v-434h-89v308h-78q13 -26 13 -61q0 -48 -27 -83.5t-73 -48.5l114 -115h-129l-181 180l59 59l45 -40q19 -13 42 -13q27 0 45 19.5t18 46.5q0 44 -37 58h-124v79h313v45h-384v66h549v-66h-76z" />
    <glyph glyph-name="two" unicode="2" horiz-adv-x="351" 
d="M293 425v-138l-36 -5q-33 53 -76 53q-23 0 -50 -15q-30 -17 -30 -39q0 -30 33 -41q22 1 40 1q32 0 63 -5l6 -84q-39 10 -93 10q-20 0 -36 -10t-16 -29q0 -24 27 -38q22 -11 48 -11q16 0 36 7q24 8 31 19v35h85v-210h-85v80q-36 -11 -71 -11q-59 0 -106 33q-52 38 -52 95
q0 46 36 79q-34 35 -34 81q0 56 47 94q44 36 101 36q22 0 46 -6v19h-227v66h391v-66h-78z" />
    <glyph glyph-name="three" unicode="3" horiz-adv-x="436" 
d="M378 425v-435h-88v49q-43 -20 -109 -20q-71 0 -120 52t-49 124q0 67 48 111q-23 34 -23 72q0 26 11 47l-65 1v64h473v-64zM289 425h-128q-15 0 -23 -16t-8 -32q0 -14 7 -25q33 7 59 7q33 0 53 -15v-87q-47 19 -62 19q-34 0 -61 -25.5t-27 -59.5q0 -37 27.5 -63t64.5 -26
q27 0 62.5 18.5t35.5 38.5v266z" />
    <glyph glyph-name="four" unicode="4" horiz-adv-x="627" 
d="M30 124q4 39 33.5 64.5t69.5 25.5q30 0 67 -23l-52 -54q-11 3 -15 3q-29 0 -29 -33q0 -25 22 -29q20 45 73 72l66 -63q-75 -15 -75 -69q0 -28 17 -46.5t45 -18.5q48 0 78 53q-53 22 -86 69l-3 6q-34 48 -34 109q0 79 58 135t137 56q15 0 29 -2v46h-450v66h669v-66h-130
l-1 -245q-27 64 -52 87t-61 23q-46 0 -76.5 -29t-30.5 -75q0 -45 30 -74t75 -29q68 0 95 64v42h86v-254h-86v82q-46 -27 -96 -27q-19 -47 -58 -78q-42 -33 -90 -33q-56 0 -96.5 36.5t-44.5 91.5q-52 9 -74 54l-35 -36l-44 42l61 64z" />
    <glyph glyph-name="five" unicode="5" horiz-adv-x="503" 
d="M317 87q-38 10 -64 46.5t-26 76.5t25 71q24 28 64 40v104h-61v66h265v-66h-113v-112q69 -40 69 -118q0 -91 -74 -150q-68 -56 -161 -56q-91 0 -155 52q-69 57 -69 146q0 82 70 138q-21 19 -21 58q0 24 7 42h-91v66h145q24 20 81 20q39 0 49 -21v-185q-18 80 -31 106
q-10 20 -26 20q-15 0 -27.5 -10.5t-12.5 -25.5q0 -31 27 -31q7 0 19.5 1.5t19.5 1.5q18 0 43 -13l-1 -85q-37 16 -59 16q-42 0 -71.5 -30.5t-29.5 -72.5q0 -49 39 -80t89 -31q48 0 81 16zM349 243q-34 0 -34 -37q0 -38 40 -38q34 0 34 34q0 41 -40 41z" />
    <glyph glyph-name="six" unicode="6" horiz-adv-x="433" 
d="M332 425v-202l-22 -4q-29 76 -101 76q-46 0 -77 -30t-31 -76t30 -75.5t76 -29.5q47 0 76.5 29t29.5 86h92q0 -93 -58 -150t-141 -57q-82 0 -139 57.5t-57 139.5t56.5 140t138.5 58q19 0 37 -3v41h-261v66h471v-66h-120z" />
    <glyph glyph-name="seven" unicode="7" horiz-adv-x="442" 
d="M332 425v-77q81 -58 81 -157q0 -85 -57 -142t-142 -57q-82 0 -139.5 56.5t-57.5 138.5q0 81 56 141t137 60q16 0 32 -3v40h-261v66h481v-66h-130zM214 294q-46 0 -76 -29.5t-30 -75.5t30 -75.5t76 -29.5q47 0 76.5 29t29.5 76t-29.5 76t-76.5 29z" />
    <glyph glyph-name="eight" unicode="8" horiz-adv-x="378" 
d="M320 425v-114l-187 -1q-17 0 -17 -12t30 -15h53q154 0 154 -148q0 -65 -51 -108.5t-117 -43.5q-73 0 -124 47t-51 119q0 6 2 32h91q-4 -20 -4 -28q0 -36 26 -62.5t62 -26.5q35 0 57.5 22t22.5 57q0 42 -43 53q-19 5 -89 5q-43 0 -72 23q-33 25 -33 67q0 100 108 100h94
v34h-251v66h419v-66h-80z" />
    <glyph glyph-name="nine" unicode="9" horiz-adv-x="435" 
d="M451 425h-131v-142h-37q-32 22 -67 22q-48 0 -80 -33t-32 -81q0 -51 32.5 -85.5t83.5 -34.5q37 0 63 19q30 22 30 57q0 21 -13 36.5t-33 15.5q-48 0 -48 -47t35 -47q6 0 11 2l6 -19q-61 -23 -69 -23q-32 0 -52 26q-18 23 -18 56q0 56 40 96.5t95 40.5q56 0 92 -37.5
t36 -93.5q0 -75 -56 -121q-52 -43 -128 -43q-81 0 -137.5 58.5t-56.5 139.5q0 84 57.5 140.5t141.5 56.5q9 0 17 -1v42h-252v66h471z" />
    <glyph glyph-name="colon" unicode=":" horiz-adv-x="452" 
d="M329 425q34 -45 34 -113q0 -23 -4 -44h88v-78h-119v6q-33 -46 -94 -66l164 -140h-136l-253 217l60 63q51 -45 54 -46q27 -20 53 -20q40 0 70.5 30t30.5 70q0 86 -61 121h-234v66h498v-66h-151z" />
    <glyph glyph-name="semicolon" unicode=";" horiz-adv-x="572" 
d="M514 425v-435h-87v200h-99v6q-33 -46 -94 -66l164 -140h-136l-253 217l60 63l54 -47q26 -18 52 -18q47 0 74.5 30t27.5 77q0 78 -61 113h-234v66h610v-66h-78zM427 425h-98q34 -45 34 -113q0 -23 -4 -44h68v157z" />
    <glyph glyph-name="less" unicode="&#x3c;" horiz-adv-x="465" 
d="M398 295q-30 -32 -61 -65q-25 -33 -26 -84h-85q0 70 32 116l55 61q30 33 30 67q0 74 -76 74q-77 0 -80 -110h-87q1 93 43 142q47 53 128 53q72 0 116.5 -45.5t44.5 -118.5q0 -53 -34 -90zM275 -16q-27 0 -44.5 16.5t-17.5 43.5q0 26 17.5 43t43.5 17q27 0 44.5 -17.5
t17.5 -44.5q0 -58 -61 -58z" />
    <glyph glyph-name="equal" unicode="=" horiz-adv-x="181" 
d="M58 -6q-26 0 -44 17t-18 43t17.5 43t43.5 17q27 0 44.5 -17.5t17.5 -44.5q0 -58 -61 -58z" />
    <glyph glyph-name="greater" unicode="&#x3e;" horiz-adv-x="513" 
d="M451 425v-435h-89v151l-229 -184l-55 73l141 114l-47 51l-117 -90l-49 77q98 68 202 153q27 22 27 51q0 19 -12.5 33.5t-31.5 14.5q-24 0 -37.5 -17.5t-13.5 -42.5q0 -42 54 -53l-81 -60q-59 34 -59 110q0 63 36.5 106t98.5 43q59 0 94.5 -39t35.5 -98q0 -43 -20 -75
q-16 -24 -54 -57l46 -50l71 60v164h-53v66h221v-66h-79z" />
    <glyph glyph-name="question" unicode="?" horiz-adv-x="587" 
d="M320 425q9 -18 15 -48q25 11 54 11q66 0 109.5 -48.5t43.5 -115.5t-41 -116q-43 -53 -109 -53q-22 0 -54 10v93q35 -19 53 -19q32 0 52 25.5t20 57.5q0 33 -21 57.5t-53 24.5t-51 -16q-21 -103 -125 -137l199 -161h-133l-292 236l62 61l53 -46q25 -17 51 -17
q46 0 75 29.5t29 75.5q0 64 -52 96h-244v66h650v-66h-291z" />
    <glyph glyph-name="at" unicode="@" horiz-adv-x="446" 
d="M251 78l104 -105h-127l-211 213l64 64q37 -37 66 -67q32 -25 70 -25q49 0 85 34.5t36 83.5t-36 86t-85 37q-78 0 -112 -80h-86q21 79 75.5 120t122.5 41q87 0 145 -58t58 -145q0 -74 -48 -130.5t-121 -68.5z" />
    <glyph glyph-name="A" unicode="A" horiz-adv-x="336" 
d="M-21 426v65h375v-65h-375zM205 36q-73 0 -126.5 51.5t-53.5 124.5t53.5 128.5t126.5 55.5q51 0 103 -35v-141q-26 52 -50 72q-21 17 -51 17h-9l98 -127q6 12 30 90v-190q-54 -46 -121 -46zM124 264q-13 -22 -13 -48q0 -39 27 -68t65 -29q16 0 31 6z" />
    <glyph glyph-name="B" unicode="B" horiz-adv-x="460" 
d="M402 425v-435h-89v53q-49 -33 -138 -33q-70 0 -117 43.5t-47 112.5q0 41 36 81q-28 25 -28 65q0 37 23.5 61.5t60.5 30.5v21h-125v66h503v-66h-79zM313 425h-121v-97q-33 16 -51 16q-42 0 -42 -28q0 -12 16 -21q25 8 51 8q30 0 65 -13v-105q-41 29 -64 29q-71 0 -71 -51
q0 -29 21 -50t50 -21q50 0 80 10.5t66 42.5v280z" />
    <glyph glyph-name="C" unicode="C" horiz-adv-x="696" 
d="M606 425v-309q-30 30 -46 30q-17 0 -30 -14t-13 -31q0 -22 22 -35q18 -10 42 -10q55 0 107 64v-91q-38 -44 -115 -44q-57 0 -98 34t-41 91q0 83 83 103v53h-109v-276h-85v244l-200 -244h-115l213 253q-5 32 -31.5 52t-59.5 20q-38 0 -60 -28q-26 -32 -48 -122l-2 200
q52 36 112 36q108 0 155 -86l36 46v64h-349v66h741v-66h-109zM517 425h-109v-86h109v86z" />
    <glyph glyph-name="D" unicode="D" horiz-adv-x="460" 
d="M358 425v-101h82v-76h-82v-85q0 -73 -50 -122.5t-123 -49.5q-70 0 -121 50t-51 120q0 71 50.5 123.5t121.5 52.5q39 0 84 -22v-120q-43 52 -81 52q-36 0 -60.5 -24t-24.5 -60q0 -37 23 -59.5t60 -22.5t60 22.5t23 59.5v262h-288v66h497v-66h-120z" />
    <glyph glyph-name="E" unicode="E" horiz-adv-x="457" 
d="M358 425v66h115v-66h-115zM360 248v-85q0 -73 -50 -122.5t-123 -49.5q-70 0 -121 50t-51 120q0 71 50.5 123.5t121.5 52.5q39 0 84 -22v-120q-43 52 -82 52q-34 0 -59.5 -24t-25.5 -58t26 -60t60 -26q33 0 57 25.5t24 58.5v174q0 38 -18 62q-21 27 -58 27q-30 0 -49 -20
q-21 -24 -43 -91v159q51 28 109 28q145 0 149 -178h81v-76h-82z" />
    <glyph glyph-name="F" unicode="F" 
d="M-153 573q-48 0 -48 47t48 47t48 -47t-48 -47zM-153 490q-59 0 -97.5 38t-38.5 107h74q0 -37 17.5 -54t44.5 -17t44.5 17t17.5 54h74q0 -69 -38.5 -107t-97.5 -38z" />
    <glyph glyph-name="G" unicode="G" horiz-adv-x="411" 
d="M-20 425v66h451v-66h-451zM176 280q-38 0 -61.5 -25t-23.5 -63t23.5 -62.5t61.5 -24.5t62.5 25.5t24.5 63.5q0 48 -75 92h126q29 -48 29 -95q0 -68 -50.5 -117t-118.5 -49q-67 0 -115.5 49.5t-48.5 116.5q0 70 48 118.5t118 48.5l227 -1v-77h-227z" />
    <glyph glyph-name="H" unicode="H" horiz-adv-x="416" 
d="M-20 425v66h456v-66h-456zM299 291q28 -46 28 -100q0 -82 -57 -138.5t-139 -56.5q-63 0 -116 36v135l20 2q5 -35 32.5 -57.5t62.5 -22.5q41 0 72 31t31 72q0 35 -27 67t-61 32h-78v74h326v-74h-94z" />
    <glyph glyph-name="I" unicode="I" horiz-adv-x="354" 
d="M283 425v66h136v-66h-136zM230 239v27q-43 -25 -79 -48q-52 -35 -52 -77q0 -31 21 -53.5t52 -22.5q34 0 56 30l1 111h84v-284h-87v70q-33 -12 -64 -12q-63 0 -107.5 48t-44.5 111q0 77 56 124q8 5 99 60q47 28 47 64q0 17 -12 29t-29 12q-18 0 -29.5 -15t-11.5 -34
q0 -32 49 -40l-9 -19l-74 -41q-50 33 -50 100q0 57 33.5 92.5t89.5 35.5q55 0 91 -35.5t36 -90.5q0 -35 -14 -62l127 -1v-79h-179z" />
    <glyph glyph-name="J" unicode="J" horiz-adv-x="336" 
d="M-19 425v66h377v-66h-377zM207 21q-77 0 -133 53.5t-56 130.5t55.5 135t132.5 58q54 0 108 -37v-145q-27 53 -52 74q-22 18 -54 18q-43 0 -72 -28.5t-29 -71.5q0 -42 29 -71t71 -29q41 0 67 31q30 35 58 127v-197q-55 -48 -125 -48z" />
    <glyph glyph-name="K" unicode="K" horiz-adv-x="299" 
d="M122 425l-1 -225q0 -26 21 -42q18 -14 45 -14q25 0 39 13q2 1 45 61v-130q-28 -28 -83 -28q-160 0 -159 157l1 208h-49v66h338v-66h-197z" />
    <glyph glyph-name="L" unicode="L" horiz-adv-x="171" 
d="M112 425v-434h-89v434h-64v66h65q-22 59 -88 59q-75 0 -95 -81h-83q12 79 60.5 120.5t117.5 41.5q65 0 113 -38t60 -102h87v-66h-84z" />
    <glyph glyph-name="M" unicode="M" horiz-adv-x="287" 
d="M128 344q-27 0 -45 16t-18 43q0 26 17.5 43.5t43.5 17.5q27 0 44.5 -17.5t17.5 -44.5q0 -26 -17 -42t-43 -16zM127 15q-26 0 -44 17t-18 43t17.5 43t43.5 17q27 0 44.5 -17.5t17.5 -44.5q0 -26 -17.5 -42t-43.5 -16z" />
    <glyph glyph-name="N" unicode="N" horiz-adv-x="491" 
d="M-19 425v66h531v-66h-531zM369 183q0 -22 20 -67l-104 49q0 45 8 73q-30 51 -89 51q-45 0 -76 -30.5t-31 -75.5t31 -75.5t76 -30.5q47 0 97 58v-115q-51 -29 -100 -29q-78 0 -134 58.5t-56 136.5t57 132.5t135 54.5q76 0 134 -55v-4q53 58 146 59v-84q-53 -1 -83.5 -32
t-30.5 -74z" />
    <glyph glyph-name="O" unicode="O" horiz-adv-x="417" 
d="M355 425v-116h-196q-29 0 -29 -17t54 -17q9 0 27.5 1t27.5 1q68 0 110 -31q48 -35 48 -101q0 -50 -31.5 -88t-80.5 -46l75 -63l-59 -66l-298 247l62 66q76 -66 89 -75q46 -29 98 -29q25 0 43 14t18 38q0 53 -76 53q-12 0 -35.5 -1.5t-35.5 -1.5q-126 0 -126 98
q0 44 34 72t78 28h113v34h-279v66h451v-66h-82z" />
    <glyph glyph-name="P" unicode="P" horiz-adv-x="378" 
d="M321 425v-155q0 -57 -39.5 -97t-95.5 -40q-40 0 -65 13v-1q0 -32 22.5 -52t55.5 -20q34 0 55 21t17 65l98 1q-6 -80 -55.5 -127t-117.5 -47q-67 0 -118 49t-51 116v274h-46v66h417v-66h-77zM236 425h-119v-156q0 -24 18 -38t43 -14q58 0 58 52v156z" />
    <glyph glyph-name="Q" unicode="Q" horiz-adv-x="479" 
d="M422 425v-434h-85v230q0 12 -15 32q-13 17 -25 26q-31 24 -68 24q-46 0 -80.5 -35t-34.5 -81t34 -78.5t80 -32.5q25 0 61 17v-97q-37 -10 -65 -10q-83 0 -140 61t-57 145q0 75 50 130h-54v68h205q60 0 109 -32v67h-357v66h517v-66h-75z" />
    <glyph glyph-name="R" unicode="R" horiz-adv-x="367" 
d="M-22 425v66h412v-66h-412zM243 32q-78 0 -134 56.5t-56 134.5q0 50 27 95h-61v78h314v-78h-122q-9 0 -25.5 -13.5t-23.5 -22.5q-20 -26 -20 -60q0 -44 28.5 -72t72.5 -28q37 0 62.5 20.5t53.5 141.5v-209q-56 -43 -116 -43z" />
    <glyph glyph-name="S" unicode="S" horiz-adv-x="511" 
d="M392 425v-50q46 29 111 29v-88q-46 0 -78.5 -26t-32.5 -60v-239h-89v59q-46 -30 -101 -30q-79 0 -134.5 55t-55.5 134t55 138t133 59q47 0 97 -28v-121q-48 59 -94 59q-43 0 -73 -30.5t-30 -73.5q0 -46 28.5 -74t74.5 -28q43 0 71.5 26.5t28.5 69.5v219h-321v66h553v-66
h-143z" />
    <glyph glyph-name="T" unicode="T" horiz-adv-x="338" 
d="M-20 425v66h383v-66h-383zM209 301q-49 0 -81.5 -31.5t-32.5 -80.5q0 -47 33 -80t80 -33q25 0 61 17v-97q-34 -9 -62 -9q-84 0 -142 58t-58 142q0 85 58 144t143 59q70 0 129 -46v-199q-17 62 -23 77q-18 46 -45 62.5t-60 16.5z" />
    <glyph glyph-name="U" unicode="U" horiz-adv-x="411" 
d="M318 425q58 -72 58 -168q0 -107 -66 -185q-70 -82 -176 -82q-39 0 -82 14l-61 139q79 -69 138 -69q75 0 122 54q45 51 45 127q0 58 -29 104t-82 66h-213v66h471v-66h-125z" />
    <glyph glyph-name="V" unicode="V" horiz-adv-x="546" 
d="M485 125q-57 0 -93.5 41t-36.5 98q0 55 37 96t91 41q18 0 44 -8v-98q-28 21 -43 21q-21 0 -34.5 -15.5t-13.5 -36.5t13.5 -38t34.5 -17q14 0 43 22v-100q-26 -6 -42 -6zM327 425q29 -49 29 -104q0 -63 -36 -112.5t-95 -69.5l156 -149h-127l-252 229l59 65l54 -49
q25 -19 51 -19q45 0 74 29.5t29 74.5q0 74 -70 105h-216v66h579v-66h-235z" />
    <glyph glyph-name="W" unicode="W" horiz-adv-x="339" 
d="M266 425v66h98v-66h-98zM185 18q-72 0 -122 50t-50 122q0 67 47 115q-22 32 -22 71q0 26 10 49h-66v66h101v-18q33 29 80 29q46 0 80 -27.5t46 -84.5h-84q-16 29 -39 29q-18 0 -32.5 -14t-14.5 -32q0 -12 7 -23q29 10 59 10q31 0 66 -13v-102q-38 28 -66 28
q-39 0 -62.5 -24.5t-23.5 -63.5q0 -38 24 -62.5t62 -24.5q55 0 81 15q30 16 66 119v-172q-50 -42 -147 -42z" />
    <glyph glyph-name="X" unicode="X" horiz-adv-x="438" 
d="M367 425v-128h-207q-33 0 -33 -19q0 -6 8 -12q37 18 79 18q83 0 141.5 -56.5t58.5 -139.5v-21q-63 36 -104 36q-23 0 -47 -12q-28 -15 -28 -35q0 -36 57 -36q60 0 92 53l43 -43q-34 -46 -65 -63q-34 -18 -89 -18q-51 0 -85.5 30.5t-34.5 81.5q0 50 39 82q34 27 86 33
q-28 21 -63 21q-47 0 -82.5 -34.5t-35.5 -81.5q0 -35 20.5 -66.5t69.5 -46.5l-75 -66q-49 27 -76 76t-27 100q0 76 54 136q-24 30 -24 67t29.5 68t65.5 31h143v45h-294v66h474v-66h-90z" />
    <glyph glyph-name="Y" unicode="Y" horiz-adv-x="427" 
d="M341 425v66h105v-66h-105zM252 27q-90 0 -156 75q-61 69 -74 169l86 27q-1 -40 21 -56.5t51 -16.5q42 0 70 33t28 76q0 39 -25.5 70.5t-63.5 31.5q-33 0 -57 -29l67 1l1 -83h-181q15 190 178 190q75 0 119 -55q42 -51 42 -127q0 -80 -44 -133q-47 -58 -125 -58
q-8 0 -15 1q32 -29 89 -29q43 0 83.5 18t78.5 81v-126q-63 -60 -173 -60z" />
    <glyph glyph-name="Z" unicode="Z" horiz-adv-x="413" 
d="M312 425v66h119v-66h-119zM214 148l134 -157h-111l-214 246l66 58l49 -58q19 -10 38 -10q42 0 67 33q22 30 22 73q0 45 -21 73q-24 30 -68 30q-48 0 -63 -40h67v-73h-167q-2 18 -2 28q0 69 48 119t117 50q79 0 130.5 -54t51.5 -134q0 -66 -40 -119t-104 -65z" />
    <glyph glyph-name="bracketleft" unicode="[" 
d="M-129 -204q-48 0 -81 27t-33 74q0 43 29.5 72.5t72.5 29.5q42 0 68 -32v-84l-30 -17q-9 59 -35 59q-24 0 -24 -28t43 -28q25 0 53 19.5t61 73.5v-124q-62 -42 -124 -42z" />
    <glyph glyph-name="backslash" unicode="\" 
d="M-30 -119q-90 64 -165 64l-1 52q151 0 265 -116h-99z" />
    <glyph glyph-name="bracketright" unicode="]" 
d="M-152 463q-51 27 -85 74q-37 51 -55 65q-39 30 -135 39l70 61q64 -8 104 -36q26 -20 76 -79q38 -45 100 -81q-51 -9 -75 -43z" />
    <glyph glyph-name="asciicircum" unicode="^" horiz-adv-x="385" 
d="M313 -81l-79 78q-20 -3 -40 -3q-80 0 -135 50.5t-55 129.5q0 41 13 70q10 23 39 59q-13 22 -13 58q0 62 40 105t102 43q57 0 101 -35q48 -37 48 -93q0 -4 -2 -25h-84l3 17q1 25 -18 39.5t-44 14.5q-27 0 -44.5 -16t-17.5 -43q0 -16 5 -22q28 10 56 10q39 0 75 -22v-75
h-24q-25 19 -55 19q-42 0 -68 -31t-26 -74q0 -72 67 -93q-17 29 -17 64q0 45 32 78t76 33q47 0 83 -36t36 -83q0 -56 -52 -100l62 -58zM249 172q-19 0 -19 -30q0 -24 22 -47q30 20 30 43q0 13 -10 23.5t-23 10.5z" />
    <glyph glyph-name="underscore" unicode="_" horiz-adv-x="255" 
d="M182 81q-23 -57 -94 -164h-76q60 111 79 165q29 82 29 181q0 98 -24 172q-16 47 -83 173h77q67 -101 91 -161q36 -85 36 -181q0 -101 -35 -185z" />
    <glyph glyph-name="grave" unicode="`" horiz-adv-x="459" 
d="M402 426v-435h-93v172h-33q-13 -65 -65 -106.5t-118 -41.5q-39 0 -81 18v108q44 -38 81 -38q40 0 70.5 29.5t30.5 69.5q0 41 -30 72t-71 31q-29 0 -71 -28v101q38 14 71 14q68 0 120 -43t64 -109h32v186h-334v66h504v-66h-77z" />
    <glyph glyph-name="a" unicode="a" horiz-adv-x="441" 
d="M384 426v-436h-88v77q-45 -31 -101 -31q-73 0 -126.5 51.5t-53.5 124.5t53.5 128.5t126.5 55.5q51 0 103 -35v-141q-22 43 -38 61q-27 28 -63 28h-9l98 -127q10 17 10 23v221h-317v65h483v-65h-78zM114 264q-13 -22 -13 -48q0 -38 27 -67.5t65 -29.5q16 0 31 6z" />
    <glyph glyph-name="b" unicode="b" horiz-adv-x="435" 
d="M329 425v-245q-27 64 -52 87t-61 23q-45 0 -75.5 -29.5t-30.5 -74.5t30.5 -74t75.5 -29q68 0 93 64v42h87v-254h-87v82q-43 -25 -95 -25q-83 0 -139 56.5t-56 139.5q0 80 57 136.5t137 56.5q14 0 28 -2v46h-259v66h472v-66h-125z" />
    <glyph glyph-name="c" unicode="c" horiz-adv-x="542" 
d="M487 425v-434h-89v163h-55v-6q0 -70 -51 -121t-121 -51q-67 0 -116 50.5t-49 117.5q0 22 7 52l91 1q-13 -33 -13 -52q0 -35 24 -59t59 -24q34 0 59.5 25t25.5 59q0 35 -24.5 59t-59.5 24q-19 0 -52 -12l-1 90q31 7 52 7q29 0 57 -10q20 21 20 50q0 31 -20.5 50.5
t-51.5 19.5q-69 0 -71 -85l-84 1q1 75 45 122.5t108 47.5t111 -46.5t47 -110.5q0 -52 -34 -97q11 -13 20 -28h77v197h-64v66h225v-66h-72z" />
    <glyph glyph-name="d" unicode="d" horiz-adv-x="580" 
d="M520 425v-434h-90v257h-72v-85q0 -73 -50 -122.5t-123 -49.5q-70 0 -121 50t-51 120q0 71 50.5 123.5t121.5 52.5q39 0 84 -22v-120q-43 52 -81 52q-36 0 -60.5 -24t-24.5 -60q0 -37 23 -59.5t60 -22.5t60 22.5t23 59.5v262h-288v66h614v-66h-75zM430 425h-72v-101h72
v101z" />
    <glyph glyph-name="e" unicode="e" horiz-adv-x="560" 
d="M502 425v-434h-90v257h-62v-85q0 -73 -50 -122.5t-123 -49.5q-70 0 -121 50t-51 120q0 71 50.5 123.5t121.5 52.5q39 0 84 -22v-120q-43 52 -82 52q-34 0 -59.5 -24t-25.5 -58t26 -60t60 -26q33 0 57 25.5t24 58.5v174q0 38 -18 62q-21 27 -58 27q-30 0 -49 -20
q-21 -24 -43 -91v159q51 28 109 28q145 0 149 -178h61v101h-64v66h233v-66h-79z" />
    <glyph glyph-name="f" unicode="f" horiz-adv-x="171" 
d="M113 425v-436h-89v436h-41v66h208v-66h-78z" />
    <glyph glyph-name="g" unicode="g" horiz-adv-x="530" 
d="M472 425v-435h-89v290h-207q-38 0 -61.5 -25t-23.5 -63t23.5 -62.5t61.5 -24.5t62.5 25.5t24.5 63.5q0 48 -75 92h126q29 -48 29 -95q0 -68 -50.5 -117t-118.5 -49q-67 0 -115.5 49.5t-48.5 116.5q0 70 48 118t118 48h207v68h-408v66h578v-66h-81z" />
    <glyph glyph-name="h" unicode="h" horiz-adv-x="512" 
d="M452 425v-434h-89v300h-74q28 -46 28 -100q0 -82 -57 -138.5t-139 -56.5q-63 0 -116 36v135l20 2q5 -35 32.5 -57.5t62.5 -22.5q41 0 72 31t31 72q0 35 -27 67t-61 32h-78v74h306v60h-379v66h554v-66h-86z" />
    <glyph glyph-name="i" unicode="i" horiz-adv-x="218" 
d="M178 60q-160 0 -159 157l1 208h-49v66h275v-66h-100l115 -187v-150q-29 -28 -83 -28zM109 344v-144q0 -26 22 -41t49 -15q28 0 44 12z" />
    <glyph glyph-name="j" unicode="j" horiz-adv-x="453" 
d="M391 425v-435h-89v63q-46 -32 -105 -32q-77 0 -133 54t-56 130q0 77 55.5 135t132.5 58q54 0 108 -37v-145q-27 53 -52 74q-22 18 -54 18q-43 0 -72 -28.5t-29 -71.5q0 -42 29 -70.5t71 -28.5q64 0 96 67q9 19 9 22v227h-321v66h495v-66h-85z" />
    <glyph glyph-name="k" unicode="k" horiz-adv-x="396" 
d="M336 425v-435h-93v80q-24 -10 -63 -10q-157 0 -157 157v208h-43v66h435v-66h-79zM243 425h-129v-228q0 -26 19.5 -41t45.5 -15q64 0 64 52v232z" />
    <glyph glyph-name="l" unicode="l" horiz-adv-x="171" 
d="M410 471q-56 82 -147 82q-81 0 -132 -62h61v-66h-79v-434h-89v434h-44v66h50q33 65 95 103t135 38q76 0 138.5 -39t101.5 -122h-90z" />
    <glyph glyph-name="m" unicode="m" horiz-adv-x="209" 
d="M-33 425v66h261v-66h-261zM24 -12q-25 0 -58 10v100q37 -18 58 -18q35 0 58 28t23 64q0 37 -23.5 65t-59.5 28q-81 0 -90 -106l-20 1v152q51 44 110 44q74 0 121 -54t47 -129q0 -73 -47 -129t-119 -56z" />
    <glyph glyph-name="n" unicode="n" horiz-adv-x="609" 
d="M552 425v-433h-89v296q-40 -4 -67 -34.5t-27 -70.5q0 -22 20 -67l-104 49q0 45 8 73q-30 51 -89 51q-45 0 -76 -30.5t-31 -75.5t31 -75.5t76 -30.5q47 0 97 58v-115q-51 -29 -100 -29q-78 0 -134 58.5t-56 136.5t57 132.5t135 54.5q76 0 134 -55v-4q50 55 126 59v52h-482
v66h648v-66h-77z" />
    <glyph glyph-name="o" unicode="o" horiz-adv-x="557" 
d="M495 425v-435h-93v79q-57 -37 -128 -37q-75 0 -142 42t-93 110q-23 60 -23 99q0 10 2 26l94 22q-6 -27 -6 -37q0 -32 21 -49.5t54 -17.5q44 0 73 28.5t29 72.5q0 25 -15.5 61t-32.5 36h-255v66h597v-66h-82zM402 425h-55q21 -43 21 -90q0 -79 -50.5 -134.5t-128.5 -55.5
q-7 0 -14 1q39 -30 86 -30q43 0 87 20q54 25 54 63v226z" />
    <glyph glyph-name="p" unicode="p" horiz-adv-x="368" 
d="M263 486v5h123v-66h-65q19 -34 19 -72q0 -52 -34 -97q42 -49 42 -108q0 -70 -51 -121t-121 -51q-67 0 -116 50.5t-49 117.5q0 22 7 52l91 1q-13 -33 -13 -52q0 -35 24 -59t59 -24q34 0 59.5 25t25.5 59q0 35 -24.5 59t-59.5 24q-19 0 -52 -12l-1 90q31 7 52 7
q29 0 57 -10q20 21 20 50q0 31 -20.5 50.5t-51.5 19.5q-69 0 -71 -85l-84 1q1 50 19 85h-67v66h123v-4q36 23 78 23q44 0 81 -24z" />
    <glyph glyph-name="q" unicode="q" horiz-adv-x="483" 
d="M425 425v-434h-85v181l-219 -182h-131l247 205q-9 31 -34.5 51t-58.5 20q-37 0 -58 -28q-25 -33 -48 -125v203q50 35 106 35q51 0 95 -26.5t67 -71.5l34 28v144h-364v66h535v-66h-86z" />
    <glyph glyph-name="r" unicode="r" horiz-adv-x="492" 
d="M434 425v-434h-95v70q-45 -29 -96 -29q-78 0 -134 56.5t-56 134.5q0 50 27 95h-61v78h314v-78h-122q-22 0 -49 -36q-21 -28 -21 -59q0 -41 30.5 -71.5t71.5 -30.5q29 0 62.5 23.5t33.5 51.5v229h-361v66h539v-66h-83z" />
    <glyph glyph-name="s" unicode="s" horiz-adv-x="729" 
d="M402 425v-50q46 29 101 29q78 0 134 -55t56 -133t-54.5 -138t-132.5 -60q-43 0 -90 24v112q47 -47 85 -47q42 0 73.5 32.5t31.5 74.5q0 41 -31 71.5t-72 30.5q-35 0 -68 -26t-33 -60v-240h-89v60q-46 -30 -101 -30q-78 0 -134 55.5t-56 133.5t54.5 137.5t132.5 59.5
q48 0 98 -28v-121q-48 59 -94 59q-43 0 -73 -30.5t-30 -73.5q0 -45 29 -73.5t74 -28.5q43 0 71.5 26.5t28.5 69.5v219h-331v66h771v-66h-351z" />
    <glyph glyph-name="t" unicode="t" horiz-adv-x="458" 
d="M402 425v-434h-85v230q0 27 -40 58q-31 24 -68 24q-46 0 -80.5 -35t-34.5 -81t34 -78.5t90 -32.5l-1 -89q-92 0 -151 59t-59 141q0 85 58 144t143 59q60 0 109 -32v67h-337v66h497v-66h-75z" />
    <glyph glyph-name="u" unicode="u" horiz-adv-x="609" 
d="M551 425v-434h-89v434h-124q50 -74 50 -163q0 -107 -67 -183q-69 -80 -175 -80q-40 0 -84 14l-70 161q93 -83 155 -83q67 0 112 55q43 51 43 119q0 99 -92 160h-236v66h656v-66h-79z" />
    <glyph glyph-name="v" unicode="v" horiz-adv-x="660" 
d="M602 425v-434h-85v136q-11 -2 -22 -2q-57 0 -93.5 41t-36.5 98q0 55 37 96t91 41q12 0 24 -2v26h-180q29 -49 29 -104q0 -63 -35.5 -112.5t-95.5 -69.5l164 -149h-135l-252 229l59 65l53 -48q26 -20 52 -20q45 0 74 29.5t29 74.5q0 74 -70 105h-226v66h701v-66h-82z
M517 310q-11 7 -23 7q-20 0 -34 -17t-14 -38t13.5 -36.5t34.5 -15.5q12 0 23 6v94z" />
    <glyph glyph-name="w" unicode="w" horiz-adv-x="480" 
d="M423 425v-435h-89v60q-52 -33 -130 -33t-132 47q-57 49 -57 126q0 67 47 115q-22 32 -22 71q0 26 10 49h-66v66h101v-18q33 29 80 29q45 0 79.5 -28t47.5 -84h-85q-16 29 -39 29q-18 0 -32.5 -14t-14.5 -32q0 -12 7 -23q29 10 59 10q31 0 66 -13v-101q-40 28 -66 28
q-35 0 -61.5 -27.5t-26.5 -62.5q0 -42 33 -66q29 -21 72 -21q96 0 130 79v249h-46v66h214v-66h-79z" />
    <glyph glyph-name="x" unicode="x" horiz-adv-x="436" 
d="M367 425v-118h-207q-33 0 -33 -23q0 -12 8 -18q37 18 78 18q85 0 143 -57.5t58 -142.5q0 -54 -25 -100h-106q43 53 43 99t-33 80t-79 34q-47 0 -82 -34.5t-35 -81.5q0 -36 20 -66.5t70 -46.5l-75 -66q-49 27 -76 76t-27 100q0 76 54 136q-23 28 -23 65q0 44 28 76t71 32
h138v38h-294v66h472v-66h-88z" />
    <glyph glyph-name="y" unicode="y" horiz-adv-x="542" 
d="M484 425v-434h-89v79q-58 -43 -153 -43q-90 0 -156 75q-61 69 -74 169l86 27q-1 -40 21 -56.5t51 -16.5q42 0 70 33t28 76q0 39 -25.5 70.5t-63.5 31.5q-33 0 -58 -29l68 -1l1 -81h-181q15 190 178 190q75 0 119 -55q42 -51 42 -127q0 -80 -44 -133q-47 -58 -125 -58
q-8 0 -15 1q32 -29 89 -29q41 0 79 16q42 18 63 50v245h-64v66h232v-66h-79z" />
    <glyph glyph-name="z" unicode="z" horiz-adv-x="562" 
d="M505 425v-434h-89v434h-114v66h282v-66h-79zM204 148l134 -157h-111l-214 246l66 58l49 -58q19 -10 38 -10q42 0 67 33q22 30 22 73q0 44 -23 73.5t-66 29.5q-48 0 -63 -40h67v-73h-167q-2 18 -2 28q0 68 48.5 118.5t116.5 50.5q79 0 130.5 -54.5t51.5 -133.5
q0 -66 -40 -119t-104 -65z" />
    <glyph glyph-name="braceleft" unicode="{" 
d="M-9 608q-20 36 -50 36q-26 0 -42.5 -19.5t-16.5 -45.5t16.5 -45.5t50.5 -19.5v-42h-97q-42 46 -42 107q0 59 36.5 101t95.5 42q93 0 125 -114h-76z" />
    <glyph glyph-name="bar" unicode="|" 
d="M-279 -73h-122l317 256l1 -89z" />
    <glyph glyph-name="braceright" unicode="}" 
d="M-185 465q-46 25 -80 72q-38 52 -55 65q-39 30 -135 39l69 61q65 -8 106 -38q18 -14 77 -79q-15 50 -44 81q-23 24 -77 56l88 26q53 -30 79 -77q18 -32 37 -102q13 -51 39 -81q-46 -5 -104 -23z" />
    <glyph glyph-name="asciitilde" unicode="~" horiz-adv-x="345" 
d="M-25 426v66h391v-66h-391zM276 163q-13 -65 -65 -106.5t-118 -41.5q-39 0 -81 18v108q44 -38 81 -38q40 0 70.5 29.5t30.5 69.5q0 41 -30 72t-71 31q-29 0 -71 -28v101q38 14 71 14q68 0 120 -43t64 -109h62v-77h-63z" />
    <glyph glyph-name="exclamdown" unicode="&#xa1;" horiz-adv-x="394" 
d="M-17 426v66h431v-66h-431zM286 299q13 -26 13 -61q0 -48 -27 -83.5t-73 -48.5l114 -115h-129l-181 180l59 59l45 -40q19 -13 42 -13q28 0 45.5 20t17.5 48q0 42 -37 57q-45 -1 -83 -1h-41v79h326l1 -81h-92z" />
    <glyph glyph-name="sterling" unicode="&#xa3;" horiz-adv-x="319" 
d="M161 425q-15 0 -23 -16t-8 -32q0 -14 7 -25q33 7 59 7q33 0 53 -15v-87q-46 19 -62 19q-34 0 -61 -25t-27 -59q0 -37 27.5 -63.5t64.5 -26.5q34 0 62 13q34 16 39 46l20 -2l-2 -110q-51 -30 -129 -30q-71 0 -120 52t-49 124q0 67 48 111q-23 33 -23 71q0 25 11 47h-65v66
h357v-64z" />
    <glyph glyph-name="yen" unicode="&#xa5;" horiz-adv-x="297" 
d="M-20 425v66h334v-66h-334zM157 189q-49 0 -94 27q-50 31 -66 84l45 32q19 -50 75 -50q77 0 152 51v-100q-41 -44 -112 -44z" />
    <glyph glyph-name="section" unicode="&#xa7;" horiz-adv-x="348" 
 />
    <glyph glyph-name="ordfeminine" unicode="&#xaa;" horiz-adv-x="431" 
d="M368 226q-50 0 -50 52q0 55 50 55q22 0 37.5 -15.5t15.5 -37.5q0 -54 -53 -54zM320 425v-114l-187 -1q-17 0 -17 -12t30 -15h53q154 0 154 -148q0 -65 -51 -108.5t-117 -43.5q-73 0 -124 47t-51 119q0 6 2 32h91q-4 -20 -4 -28q0 -36 26 -62.5t62 -26.5q35 0 57.5 22
t22.5 57q0 42 -43 53q-19 5 -89 5q-43 0 -72 23q-33 25 -33 67q0 100 108 100h94v34h-251v66h480v-66h-141z" />
    <glyph glyph-name="guillemotleft" unicode="&#xab;" 
d="M-157 -132l-41 41l-70 -68l-58 47l112 113l95 -95z" />
    <glyph glyph-name="degree" unicode="&#xb0;" horiz-adv-x="438" 
d="M368 256q-50 0 -50 52q0 54 50 54q22 0 37.5 -15.5t15.5 -37.5t-15.5 -37.5t-37.5 -15.5zM265 82h4q36 1 63 -23.5t27 -60.5q0 -78 -115 -78h-2v65h2q43 0 43 15q0 16 -20 16q-23 0 -23 -11v-116h-73v33q-13 -3 -26 -3q-37 0 -63.5 23.5t-26.5 59.5q0 79 117 79v-65h-1
q-44 0 -44 -16t22 -16t22 14v70q-64 3 -110 36q-51 38 -51 100q0 8 2 24h92q-5 -18 -5 -25q0 -32 30 -51q26 -16 60 -16q31 0 54.5 15t23.5 45q0 33 -44 41q-14 3 -81 3q-112 0 -112 74q0 83 108 83h94v28h-251v66h480v-66h-141v-98l-187 1q-16 0 -16 -9t34 -9q93 0 133 -15
q69 -26 69 -105q0 -74 -88 -108z" />
    <glyph glyph-name="acute" unicode="&#xb4;" horiz-adv-x="751" 
d="M498 425v-81q25 7 50 7q74 0 125.5 -55t51.5 -129q0 -71 -51.5 -123.5t-133.5 -54.5v82q47 5 74 34t27 67q0 40 -30 69t-70 29q-23 0 -43 -10v-270h-89v258h-63v-85q0 -73 -50 -122.5t-123 -49.5q-70 0 -121 50t-51 120q0 71 50.5 123.5t121.5 52.5q39 0 84 -22v-120
q-43 52 -82 52q-34 0 -59.5 -24t-25.5 -58t26 -60t60 -26q33 0 57 25.5t24 58.5v180q0 34 -25.5 52t-60.5 18q-49 0 -87 -30q-21 -17 -34 -46q-16 -36 -35 -119v220q69 60 160 60q81 0 128.5 -47t44.5 -127h61v101h-45v66h405v-66h-271z" />
    <glyph glyph-name="periodcentered" unicode="&#xb7;" horiz-adv-x="442" 
d="M368 258q-50 0 -50 52q0 54 50 54q22 0 37.5 -15t15.5 -37q0 -54 -53 -54zM320 425v-95h-187q-17 0 -17 -8q0 -7 30 -10h77q53 0 88.5 -36.5t35.5 -89.5q0 -55 -39 -82v-211h-73v182l-22 -4q8 -21 8 -43q0 -52 -37 -89.5t-88 -37.5q-28 0 -60 16v78q34 -24 52 -24
q25 0 42.5 20.5t17.5 45.5q0 21 -12 38q-54 10 -90 44q-40 39 -36 91l2 21h93q-7 -21 -7 -29q0 -31 33 -49q28 -15 61 -15q75 0 75 60q0 33 -44 41q-15 3 -82 3q-51 0 -75 12q-36 17 -36 63q0 82 108 82h94v26h-251v66h480v-66h-141z" />
    <glyph glyph-name="periodcentered" unicode="&#x2219;" horiz-adv-x="442" 
d="M368 258q-50 0 -50 52q0 54 50 54q22 0 37.5 -15t15.5 -37q0 -54 -53 -54zM320 425v-95h-187q-17 0 -17 -8q0 -7 30 -10h77q53 0 88.5 -36.5t35.5 -89.5q0 -55 -39 -82v-211h-73v182l-22 -4q8 -21 8 -43q0 -52 -37 -89.5t-88 -37.5q-28 0 -60 16v78q34 -24 52 -24
q25 0 42.5 20.5t17.5 45.5q0 21 -12 38q-54 10 -90 44q-40 39 -36 91l2 21h93q-7 -21 -7 -29q0 -31 33 -49q28 -15 61 -15q75 0 75 60q0 33 -44 41q-15 3 -82 3q-51 0 -75 12q-36 17 -36 63q0 82 108 82h94v26h-251v66h480v-66h-141z" />
    <glyph glyph-name="questiondown" unicode="&#xbf;" horiz-adv-x="617" 
d="M499 54l75 -64h-115l-162 146l59 58l19 -19l7 -8q18 -19 24 -23q25 -20 49 -20q34 0 57 22.5t23 56.5t-23.5 57t-57.5 23q-51 0 -75 -57h-78q19 67 59 99t96 32q66 0 110 -44t44 -110q0 -52 -31 -93.5t-80 -55.5zM313 425q22 -47 22 -90q0 -143 -129 -184l199 -161h-133
l-292 236l62 61q39 -36 47 -41q30 -22 57 -22q46 0 75 29.5t29 75.5q0 64 -52 96h-244v66h679v-66h-320z" />
    <glyph glyph-name="AE" unicode="&#xc6;" horiz-adv-x="301" 
d="M162 396v46q33 0 45 18q-42 14 -42 62q0 29 19 48.5t48 19.5q67 0 67 -71q0 -51 -38 -87t-99 -36zM38 396v46q32 0 44 18q-41 14 -41 62q0 29 18.5 48.5t47.5 19.5q67 0 67 -71q0 -51 -37.5 -87t-98.5 -36z" />
    <glyph glyph-name="Egrave" unicode="&#xc8;" horiz-adv-x="404" 
d="M344 425v-435h-93v83q-24 -13 -63 -13q-156 0 -155 157l1 208h-53v66h442v-66h-79zM156 425l94 -151l1 151h-95zM122 343l1 -143q0 -26 20 -41t47 -15q28 0 44 12z" />
    <glyph glyph-name="Uacute" unicode="&#xda;" horiz-adv-x="301" 
d="M162 396v46q33 0 45 18q-42 14 -42 62q0 29 19 48.5t48 19.5q67 0 67 -71q0 -51 -38 -87t-99 -36zM38 396v46q32 0 44 18q-41 14 -41 62q0 29 18.5 48.5t47.5 19.5q67 0 67 -71q0 -51 -37.5 -87t-98.5 -36z" />
    <glyph glyph-name="Ucircumflex" unicode="&#xdb;" horiz-adv-x="346" 
d="M279 97h-69l-10 391h89zM246 -29q-53 0 -53 52q0 51 52 51q53 0 53 -52q0 -51 -52 -51z" />
    <glyph glyph-name="Udieresis" unicode="&#xdc;" horiz-adv-x="575" 
d="M405 -4q-52 0 -85 34t-33 86q0 53 32.5 87t85.5 34t86.5 -34t33.5 -87t-33.5 -86.5t-86.5 -33.5zM194 -4h-72l250 486h71zM155 241q-53 0 -86.5 33.5t-33.5 86.5t33.5 87t86.5 34q52 0 85 -34t33 -86q0 -53 -32.5 -87t-85.5 -34zM404 162q-43 0 -43 -46q0 -45 43 -45
q47 0 47 45q0 46 -47 46zM153 407q-44 0 -44 -46q0 -45 44 -45q46 0 46 45q0 46 -46 46z" />
    <glyph glyph-name="germandbls" unicode="&#xdf;" horiz-adv-x="523" 
d="M464 425v-434h-89v90h-86v-19q0 -40 -34 -64q-29 -21 -71 -21t-72 21q-34 23 -34 64q0 87 110 87h18v-69h-18q-29 0 -29 -18t25 -18t25 18v93q-27 -11 -56 -11q-57 0 -103 39t-46 96q0 60 50 98q47 35 107 33v15h-181v66h567v-66h-83zM375 425h-131v-126h-36
q-24 32 -60 32q-25 0 -41.5 -14.5t-16.5 -39.5t19 -40t45 -15q38 0 54 32v18h81v-118h86v271z" />
    <glyph glyph-name="aring" unicode="&#xe5;" horiz-adv-x="527" 
d="M428 425v-245q-27 64 -52 87t-61 23q-45 0 -75.5 -29.5t-30.5 -74.5t30.5 -74t75.5 -29q68 0 93 64v42h87v-264h-87v92q-40 -23 -86 -25q-11 -57 -53 -91t-100 -34q-68 0 -112.5 44t-44.5 111q0 48 27 88t82 61l25 -76q-54 -22 -54 -73q0 -34 21.5 -55t55.5 -21
q62 0 72 59q-54 22 -88 72t-34 108q0 80 55 138.5t134 58.5q16 0 32 -3v46h-358v66h566v-66h-120z" />
    <glyph glyph-name="ae" unicode="&#xe6;" horiz-adv-x="298" 
d="M225 524q42 -15 42 -63q0 -29 -19 -48t-48 -19q-67 0 -67 70q0 51 38 87t99 36v-46q-34 0 -45 -17zM101 524q42 -15 42 -63q0 -29 -19 -48t-48 -19q-66 0 -66 70q0 51 37.5 87t98.5 36v-46q-34 0 -45 -17z" />
    <glyph glyph-name="ccedilla" unicode="&#xe7;" horiz-adv-x="689" 
d="M473 470q-52 0 -52 51t52 51t52 -51t-52 -51zM473 380q-64 0 -105.5 40.5t-42.5 114.5h76q1 -41 21 -60t51 -19t51 19t21 60h76q-1 -74 -42.5 -114.5t-105.5 -40.5zM503 60q-20 0 -51 11q-37 13 -37 28v169q25 -99 46.5 -114t44.5 -15q29 0 50 21.5t21 50.5
q0 26 -19.5 48t-45.5 22q-21 0 -37.5 -23.5t-32.5 -46.5q-24 -26 -60 -32l-50 72h23q20 0 41 30q15 23 31 46q31 31 86 31q61 0 100.5 -43t39.5 -105q0 -64 -43 -107t-107 -43zM330 35q-48 -53 -120 -53q-68 0 -119 48t-51 116q0 23 6 50l87 2q-14 -34 -14 -51
q1 -35 28.5 -60t63.5 -24q37 1 61.5 27t24.5 61q0 36 -26.5 61.5t-58.5 25.5q-24 0 -54 -13l-2 85q27 9 54 9q29 0 55 -10q22 21 22 50q0 31 -23.5 55t-56.5 23q-30 -1 -51.5 -24.5t-20.5 -65.5l-80 -2q-2 78 42 123.5t113 45.5q65 0 110 -42t45 -109q0 -57 -33 -99
q44 -48 44 -112q0 -67 -46 -117z" />
    <glyph glyph-name="divide" unicode="&#xf7;" horiz-adv-x="326" 
d="M76 -55h-84l215 570h72z" />
    <glyph glyph-name="oslash" unicode="&#xf8;" horiz-adv-x="419" 
d="M337 426q21 -44 21 -92q0 -79 -51 -133.5t-129 -54.5q-7 0 -15 1q39 -31 88 -31q46 0 87 19q50 24 54 65l20 -1v-116q-67 -51 -148 -51q-104 0 -181 73t-77 176q0 10 2 28l94 22q-6 -27 -6 -37q0 -32 21 -49.5t54 -17.5q44 0 73 28.5t29 72.5q0 25 -15.5 61.5t-32.5 36.5
h-245v67l460 -1v-66h-103z" />
    <glyph glyph-name="OE" unicode="&#x152;" horiz-adv-x="347" 
d="M-20 425v66h385v-66h-385zM209 301q-49 0 -81.5 -31.5t-32.5 -80.5q0 -47 33 -80t80 -33q25 0 61 17v-97q-37 -10 -65 -10q-83 0 -140 61t-57 145q0 75 50 130h-54v68h205q70 0 129 -46v-199q-17 62 -23 77q-18 46 -45 62.5t-60 16.5z" />
    <glyph glyph-name="oe" unicode="&#x153;" horiz-adv-x="357" 
d="M-14 425v66h394v-66h-394zM113 -12h-129l246 207q-9 31 -34.5 51t-58.5 20q-37 0 -58 -28q-25 -33 -48 -125v203q50 35 105 35q51 0 95.5 -26.5t67.5 -71.5l54 44v-109z" />
    <glyph glyph-name="circumflex" unicode="&#x2c6;" horiz-adv-x="482" 
d="M344 425v-86q34 17 72 17q21 0 50 -9v-99q-32 18 -53 18q-46 0 -69 -38v-238h-93v85q-30 -15 -63 -15q-156 0 -156 157v208h-51v66h523v-66h-160zM251 425h-129v-225q0 -26 19 -41t46 -15q26 0 45 14t19 40v227z" />
    <glyph glyph-name="ogonek" unicode="&#x2db;" horiz-adv-x="420" 
d="M357 425v-128h-207q-33 0 -33 -19q0 -6 8 -12q37 18 79 18q85 0 142.5 -57.5t57.5 -142.5q0 -54 -25 -100h-106q43 53 43 99q0 45 -33 79.5t-78 34.5q-47 0 -82.5 -34.5t-35.5 -81.5q0 -30 21 -67l-67 -61q-42 64 -42 125q0 76 54 136q-23 28 -23 65q0 41 26.5 71
t67.5 30h143v45h-284v66h454v-66h-80z" />
    <glyph glyph-name="tilde" unicode="&#x2dc;" horiz-adv-x="718" 
d="M409 197v0v-64h-94l1 75q1 41 -27 64t-70 23q-46 0 -78.5 -32.5t-32.5 -78.5q0 -47 33 -79t80 -32q49 0 100 59v-116q-52 -30 -103 -30q-80 0 -138 60.5t-58 140.5t58.5 137t138.5 57q86 0 143 -62q46 48 111 59v47h-485v66h752v-66h-182v-51q66 -19 104.5 -69.5
t38.5 -118.5q0 -86 -55.5 -142t-140.5 -56q-52 0 -101 28v116q51 -59 100 -59q47 0 80 32t33 79t-32.5 79t-79.5 32q-38 0 -66 -20q-29 -23 -30 -60v-18z" />
    <glyph glyph-name="endash" unicode="&#x2013;" horiz-adv-x="312" 
d="M22 199v66h271v-66h-271z" />
    <glyph glyph-name="emdash" unicode="&#x2014;" horiz-adv-x="416" 
d="M22 199v66h371v-66h-371z" />
    <glyph glyph-name="quoteleft" unicode="&#x2018;" horiz-adv-x="178" 
d="M101 524q42 -15 42 -63q0 -29 -19 -48t-48 -19q-66 0 -66 70q0 51 37.5 87t98.5 36v-46q-34 0 -45 -17z" />
    <glyph glyph-name="quoteright" unicode="&#x2019;" horiz-adv-x="178" 
d="M38 396v46q32 0 44 18q-41 14 -41 62q0 29 18.5 48.5t47.5 19.5q67 0 67 -71q0 -51 -37.5 -87t-98.5 -36z" />
    <glyph glyph-name="quotedblleft" unicode="&#x201c;" 
d="M-153 573q-48 0 -48 47t48 47t48 -47t-48 -47zM-153 490q-59 0 -97.5 38t-38.5 107h74q0 -37 17.5 -54t44.5 -17t44.5 17t17.5 54h74q0 -69 -38.5 -107t-97.5 -38z" />
    <glyph glyph-name="ellipsis" unicode="&#x2026;" horiz-adv-x="298" 
d="M225 524q42 -15 42 -63q0 -29 -19 -48t-48 -19q-67 0 -67 70q0 51 38 87t99 36v-46q-34 0 -45 -17zM101 524q42 -15 42 -63q0 -29 -19 -48t-48 -19q-66 0 -66 70q0 51 37.5 87t98.5 36v-46q-34 0 -45 -17z" />
    <glyph glyph-name="perthousand" unicode="&#x2030;" horiz-adv-x="678" 
d="M498 425v-81q23 6 47 6q74 0 134 -60l-58 -60q-36 40 -80 40q-23 0 -43 -10v-270h-89v258h-63v-85q0 -73 -50 -122.5t-123 -49.5q-70 0 -121 50t-51 120q0 71 50.5 123.5t121.5 52.5q39 0 84 -22v-120q-43 52 -82 52q-34 0 -59.5 -24t-25.5 -58t26 -60t60 -26
q33 0 57 25.5t24 58.5v180q0 34 -25.5 52t-60.5 18q-49 0 -87 -30q-21 -17 -34 -46q-16 -36 -35 -119v220q69 60 160 60q81 0 128.5 -47t44.5 -127h61v101h-45v66h339v-66h-205z" />
    <glyph glyph-name="fraction" unicode="&#x2044;" horiz-adv-x="346" 
d="M279 97h-69l-10 391h89zM246 -29q-53 0 -53 52q0 51 52 51q53 0 53 -52q0 -51 -52 -51z" />
    <glyph glyph-name="product" unicode="&#x220f;" horiz-adv-x="585" 
d="M263 486v5h347v-66h-289q19 -34 19 -72q0 -52 -34 -97q6 -7 11 -14v30q49 42 101 42q64 0 110 -55q43 -51 43 -116t-44 -114.5t-108 -49.5q-23 0 -53 10v93q35 -19 53 -19q32 0 52 25.5t20 57.5q0 33 -21 57.5t-53 24.5q-54 0 -72 -52q3 -14 3 -28q0 -70 -51 -121
t-121 -51q-67 0 -116 50.5t-49 117.5q0 22 7 52l91 1q-13 -33 -13 -52q0 -35 24 -59t59 -24q34 0 59.5 25t25.5 59q0 35 -24.5 59t-59.5 24q-19 0 -52 -12l-1 90q31 7 52 7q29 0 57 -10q20 21 20 50q0 31 -20.5 50.5t-51.5 19.5q-69 0 -71 -85l-84 1q1 50 19 85h-67v66h123
v-4q36 23 78 23q44 0 81 -24z" />
    <glyph glyph-name="infinity" unicode="&#x221e;" horiz-adv-x="575" 
d="M405 -4q-52 0 -85 34t-33 86q0 53 32.5 87t85.5 34t86.5 -34t33.5 -87t-33.5 -86.5t-86.5 -33.5zM194 -4h-72l250 486h71zM155 241q-53 0 -86.5 33.5t-33.5 86.5t33.5 87t86.5 34q52 0 85 -34t33 -86q0 -53 -32.5 -87t-85.5 -34zM404 162q-43 0 -43 -46q0 -45 43 -45
q47 0 47 45q0 46 -47 46zM153 407q-44 0 -44 -46q0 -45 44 -45q46 0 46 45q0 46 -46 46z" />
    <glyph glyph-name="approxequal" unicode="&#x2248;" horiz-adv-x="420" 
d="M357 425v-121h-213q-28 0 -28 -21q0 -11 8 -17q40 18 88 18q131 0 213 -102l-63 -64q-54 89 -158 89q-51 0 -83 -39t-32 -91q0 -81 88 -109l-75 -66q-49 27 -76 76t-27 100q0 76 54 136q-23 28 -23 65q0 41 26.5 74.5t67.5 33.5h143v38h-284v66h454v-66h-80z" />
    <glyph glyph-name="approxequal" unicode="&#x22f2;" horiz-adv-x="420" 
d="M357 425v-121h-213q-28 0 -28 -21q0 -11 8 -17q40 18 88 18q131 0 213 -102l-63 -64q-54 89 -158 89q-51 0 -83 -39t-32 -91q0 -81 88 -109l-75 -66q-49 27 -76 76t-27 100q0 76 54 136q-23 28 -23 65q0 41 26.5 74.5t67.5 33.5h143v38h-284v66h454v-66h-80z" />
    <glyph glyph-name="lessequal" unicode="&#x2264;" horiz-adv-x="166" 
d="M58 106q-26 0 -44 17t-18 43t17.5 43t43.5 17q27 0 44.5 -17.5t17.5 -44.5q0 -26 -17.5 -42t-43.5 -16zM-2 -126l-32 61q59 43 54 120l69 -21q-4 -100 -91 -160z" />
    <glyph glyph-name="apple" unicode="&#xf000;" horiz-adv-x="482" 
d="M344 425v-86q34 17 72 17q21 0 50 -9v-99q-32 18 -53 18q-46 0 -69 -38v-238h-93v85q-30 -15 -63 -15q-156 0 -156 157v208h-51v66h523v-66h-160zM251 425h-129v-225q0 -26 19 -41t46 -15q26 0 45 14t19 40v227z" />
    <glyph glyph-name="glyph133" horiz-adv-x="250" 
 />
    <glyph glyph-name="glyph134" horiz-adv-x="250" 
 />
    <glyph glyph-name="HT" horiz-adv-x="250" 
 />
    <glyph glyph-name="nonmarkingreturn" horiz-adv-x="250" 
 />
  </font>
</defs>
</svg>
